<?xml version="1.0" encoding="UTF-8" standalone="no"?>
<!DOCTYPE svg PUBLIC "-//W3C//DTD SVG 1.1//EN" "http://www.w3.org/Graphics/SVG/1.1/DTD/svg11.dtd">
<svg width="100%" height="100%" viewBox="0 0 1000 1000" version="1.1" xmlns="http://www.w3.org/2000/svg" xmlns:xlink="http://www.w3.org/1999/xlink" xml:space="preserve" xmlns:serif="http://www.serif.com/" style="fill-rule:evenodd;clip-rule:evenodd;stroke-linejoin:round;stroke-miterlimit:2;">
    <g transform="matrix(1,0,0,1,0,-653)">
        <g id="Artboard2" transform="matrix(1.61554,0,0,1.61554,0,-402.648)">
            <rect x="0" y="653.436" width="618.99" height="618.99" style="fill:none;"/>
            <g transform="matrix(0.927436,0,0,0.927436,-69.6074,825.029)">
                <g transform="matrix(1.02655,0,0,1,3.7902,-1.71944)">
                    <path d="M555.233,12.039C555.233,8.154 552.16,5 548.376,5L240.662,5C236.877,5 233.805,8.154 233.805,12.039L202.595,170.961C202.595,174.846 205.667,178 209.452,178L579.548,177.459C583.333,177.459 586.405,174.305 586.405,170.42L555.233,12.039Z" style="fill:rgb(83,203,255);"/>
                </g>
                <g transform="matrix(1.02655,0,0,1,3.7902,-1.71944)">
                    <path d="M555.233,12.039C555.233,8.154 552.16,5 548.376,5L240.662,5C236.877,5 233.805,8.154 233.805,12.039L202.595,170.961C202.595,174.846 205.667,178 209.452,178L579.548,177.459C583.333,177.459 586.405,174.305 586.405,170.42L555.233,12.039Z" style="fill:url(#_Linear1);"/>
                </g>
                <g transform="matrix(1,0,0,1,0.763652,0.280555)">
                    <path d="M597.935,175.459C601.82,175.459 605,172.305 605,168.42C605,172.305 603.85,184.541 594.966,184.541L405.69,184.276L221.034,184.541C212.15,184.541 211,172.846 211,168.961C211,172.846 214.154,176 218.039,176L597.935,175.459Z" style="fill:rgb(21,86,148);"/>
                </g>
                <g transform="matrix(1.05618,0,0,0.943662,-23.2139,15.196)">
                    <path d="M320,414.735L498,414.735L498,424.5C498,444.093 458.12,460 409,460C359.88,460 320,444.093 320,424.5L320,414.735Z" style="fill:rgb(145,176,196);"/>
                </g>
                <g transform="matrix(1.05618,0,0,0.901408,-23.2139,24.6327)">
                    <ellipse cx="409" cy="424.5" rx="89" ry="35.5" style="fill:rgb(223,230,238);"/>
                </g>
                <g transform="matrix(1.03448,0,0,1.65528,-12.7881,-182.694)">
                    <path d="M422,221.868L393,221.868L393,354C402.252,356.749 411.921,356.727 422,354L422,221.868Z" style="fill:rgb(165,188,202);"/>
                </g>
                <g transform="matrix(1,0,0,1,0.763652,0.280555)">
                    <path d="M592.645,160.43L591.207,166.194L224.793,166.194L223.355,160.43L592.645,160.43Z" style="fill:rgb(21,86,148);"/>
                </g>
                <g transform="matrix(1,0,0,1,0.763652,0.280555)">
                    <path d="M592.645,160.43L223.355,160.43L224.182,154.667L591.818,154.667L592.645,160.43Z" style="fill:rgb(148,234,255);"/>
                </g>
                <g transform="matrix(1,0,0,1,0.763652,0.280555)">
                    <path d="M279.859,142.427L294.851,27.36L521.149,27.36L536.141,142.427L279.859,142.427Z" style="fill:rgb(250,253,253);"/>
                </g>
                <g>
                    <g transform="matrix(1,0,0,1,0.763652,0.280555)">
                        <path d="M306.728,53.43L507.569,53.3" style="fill:none;"/>
                    </g>
                    <g transform="matrix(1,0,0,1,0.763652,0.280555)">
                        <path d="M306.728,53.93L507.569,53.8C507.845,53.8 508.069,53.576 508.069,53.3C508.069,53.024 507.844,52.8 507.568,52.8L306.727,52.93C306.451,52.93 306.228,53.154 306.228,53.43C306.228,53.706 306.452,53.93 306.728,53.93Z" style="fill:rgb(89,89,89);"/>
                    </g>
                    <g transform="matrix(0.924808,0,0,0.915294,35.4266,18.4636)">
                        <path d="M487.374,66.411L444.249,66.411L444.801,70.425L487.925,70.425L487.374,66.411Z" style="fill:rgb(89,89,89);"/>
                    </g>
                    <g transform="matrix(1.07011,0,0,0.915294,-28.1575,30.0213)">
                        <path d="M487.374,66.411L444.249,66.411L444.801,70.425L487.925,70.425L487.374,66.411Z" style="fill:rgb(89,89,89);"/>
                    </g>
                    <g transform="matrix(0.879931,0,0,0.915294,56.7262,41.579)">
                        <path d="M487.374,66.411L444.249,66.411L444.801,70.425L487.925,70.425L487.374,66.411Z" style="fill:rgb(89,89,89);"/>
                    </g>
                    <g transform="matrix(1.22885,0,0,0.915294,-97.6829,53.1367)">
                        <path d="M487.374,66.411L444.249,66.411L444.801,70.425L487.925,70.425L487.374,66.411Z" style="fill:rgb(89,89,89);"/>
                    </g>
                    <g transform="matrix(1,0,0,0.915294,0.763652,6.90596)">
                        <path d="M487.374,66.411L444.249,66.411L444.801,70.425L487.925,70.425L487.374,66.411Z" style="fill:rgb(89,89,89);"/>
                    </g>
                    <g transform="matrix(2.80196,0,0,2.73732,-933.872,-146.279)">
                        <path d="M487.663,66.411L444.194,66.411L443.926,70.425L487.795,70.425L487.663,66.411Z" style="fill:rgb(89,89,89);"/>
                    </g>
                    <g transform="matrix(1.16014,0,0,1.07955,-68.4471,-4.20077)">
                        <ellipse cx="431.62" cy="68.019" rx="4.719" ry="3.319" style="fill:rgb(89,89,89);"/>
                    </g>
                    <g transform="matrix(1.16014,0,0,1.07955,-67.9652,7.40212)">
                        <ellipse cx="431.62" cy="68.019" rx="4.719" ry="3.319" style="fill:rgb(89,89,89);"/>
                    </g>
                    <g transform="matrix(1.16014,0,0,1.07955,-67.2515,19.005)">
                        <ellipse cx="431.62" cy="68.019" rx="4.719" ry="3.319" style="fill:rgb(89,89,89);"/>
                    </g>
                    <g transform="matrix(1.16014,0,0,1.07955,-66.5677,30.6079)">
                        <ellipse cx="431.62" cy="68.019" rx="4.719" ry="3.319" style="fill:rgb(89,89,89);"/>
                    </g>
                    <g transform="matrix(1.16014,0,0,1.07955,-66.2515,42.2108)">
                        <ellipse cx="431.62" cy="68.019" rx="4.719" ry="3.319" style="fill:rgb(89,89,89);"/>
                    </g>
                </g>
                <g transform="matrix(1.48874,0,0,1.04523,-190.732,10.1986)">
                    <path d="M367.769,50.742C369.534,50.742 371.267,50.875 372.955,51.13C373.567,51.222 366.833,77.928 366.833,77.928C366.833,77.928 337.911,92.128 337.562,91.255C336.253,87.989 335.538,84.456 335.538,80.768C335.538,64.196 349.98,50.742 367.769,50.742Z" style="fill:rgb(27,183,252);"/>
                </g>
                <g>
                    <g transform="matrix(1.48874,0,0,1.04523,-186.732,11.1986)">
                        <path d="M368.441,79.811L389.436,102.989C383.711,107.837 376.107,110.793 367.769,110.793C354.998,110.793 343.951,103.858 338.736,93.814L368.441,79.811Z" style="fill:rgb(142,229,98);"/>
                    </g>
                    <g transform="matrix(1.48874,0,0,1.04523,-186.732,11.1986)">
                        <path d="M368.441,79.811L399.892,83.238C399.208,91.047 395.311,98.014 389.436,102.989L368.441,79.811Z" style="fill:rgb(251,230,63);"/>
                    </g>
                    <g transform="matrix(1.48874,0,0,1.04523,-186.732,11.1986)">
                        <path d="M368.441,79.811L393.75,63.005C397.678,67.98 400,74.123 400,80.768C400,81.6 399.964,82.424 399.892,83.238L368.441,79.811Z" style="fill:rgb(246,87,84);"/>
                    </g>
                    <g transform="matrix(1.48874,0,0,1.04523,-186.732,11.1986)">
                        <path d="M368.441,79.811L374.772,51.454C382.51,53.054 389.205,57.248 393.75,63.005L368.441,79.811Z" style="fill:rgb(235,130,255);"/>
                    </g>
                </g>
            </g>
            <g transform="matrix(1,0,0,1,3.17511,0)">
                <g transform="matrix(0.61899,0,0,0.61899,-258.295,538.979)">
                    <g transform="matrix(130,0,0,130,492.656,362.177)">
                        <path d="M0.392,-0.066C0.484,-0.168 0.47,-0.305 0.355,-0.385L0.449,-0.481C0.361,-0.572 0.19,-0.581 0.107,-0.484L-0.105,-0.272C-0.192,-0.168 -0.179,-0.044 -0.067,0.046L-0.157,0.141C-0.061,0.247 0.101,0.234 0.18,0.146L0.392,-0.066Z" style="fill:rgb(217,234,217);fill-rule:nonzero;"/>
                    </g>
                    <g transform="matrix(130,0,0,130,550.246,362.177)">
                        <path d="M0.311,0.02L0.581,-0.549L0.04,-0.549L-0.171,-0.338L0.099,0.232L0.311,0.02Z" style="fill:rgb(217,234,217);fill-rule:nonzero;"/>
                    </g>
                    <g transform="matrix(130,0,0,130,618.106,362.177)">
                        <path d="M-0.16,-0.074C-0.16,0.071 -0.044,0.192 0.103,0.199L0.103,0.411C0.178,0.411 0.246,0.38 0.296,0.331L0.508,0.119C0.559,0.067 0.588,-0.001 0.588,-0.073L0.588,-0.549L0.315,-0.549C0.24,-0.549 0.171,-0.52 0.12,-0.469L-0.08,-0.269C-0.13,-0.219 -0.16,-0.151 -0.16,-0.074Z" style="fill:rgb(217,234,217);fill-rule:nonzero;"/>
                    </g>
                    <g transform="matrix(70,0,0,70,732.246,345.177)">
                        <path d="M0.415,-0.549L0.364,-0.549L0.364,-0.699L0.091,-0.699L-0.121,-0.488L-0.121,-0.389L-0.172,-0.338L-0.172,-0.139L-0.121,-0.139L-0.121,-0.061C-0.121,0.088 0,0.211 0.152,0.211L0.364,-0L0.364,-0.299L0.415,-0.35L0.415,-0.549Z" style="fill:rgb(217,234,217);fill-rule:nonzero;"/>
                    </g>
                    <g transform="matrix(70,0,0,70,762.696,345.177)">
                        <path d="M-0.18,-0.075C-0.18,0.082 -0.053,0.209 0.105,0.209C0.184,0.209 0.255,0.177 0.307,0.126L0.507,-0.074C0.56,-0.128 0.589,-0.199 0.589,-0.275C0.589,-0.432 0.463,-0.559 0.305,-0.559C0.226,-0.559 0.155,-0.527 0.103,-0.476L-0.097,-0.276C-0.15,-0.222 -0.18,-0.151 -0.18,-0.075Z" style="fill:rgb(217,234,217);fill-rule:nonzero;"/>
                    </g>
                    <g transform="matrix(130,0,0,130,837.896,362.177)">
                        <path d="M0.526,-0.549L0.313,-0.549L0.313,-0.699L0.04,-0.699L-0.172,-0.488L-0.172,0.211L0.315,0.211L0.526,-0L0.362,-0.275L0.526,-0.549Z" style="fill:rgb(217,234,217);fill-rule:nonzero;"/>
                    </g>
                    <g transform="matrix(130,0,0,130,901.206,362.177)">
                        <path d="M-0.169,-0.074C-0.169,0.082 -0.042,0.209 0.117,0.209C0.191,0.209 0.264,0.179 0.318,0.126L0.518,-0.074C0.539,-0.096 0.557,-0.12 0.571,-0.148L0.526,-0.172L0.597,-0.274C0.597,-0.433 0.472,-0.559 0.317,-0.559C0.238,-0.559 0.166,-0.527 0.114,-0.476C0.08,-0.441 -0.051,-0.31 -0.086,-0.276C-0.139,-0.222 -0.169,-0.151 -0.169,-0.074Z" style="fill:rgb(217,234,217);fill-rule:nonzero;"/>
                    </g>
                    <g transform="matrix(130,0,0,130,981.546,362.177)">
                        <path d="M0.04,-0.549L-0.172,-0.338L-0.172,-0.061C-0.172,0.088 -0.051,0.211 0.101,0.211L0.101,0.411C0.176,0.411 0.244,0.38 0.294,0.331L0.506,0.119C0.557,0.067 0.586,-0.001 0.586,-0.073L0.586,-0.549L0.04,-0.549Z" style="fill:rgb(217,234,217);fill-rule:nonzero;"/>
                    </g>
                    <g transform="matrix(130,0,0,130,1062.93,362.177)">
                        <path d="M-0.16,0.199L0.384,0.199L0.586,-0L0.585,-0.277C0.584,-0.426 0.465,-0.549 0.313,-0.549C0.237,-0.549 0.169,-0.518 0.12,-0.469L-0.08,-0.269C-0.13,-0.22 -0.16,-0.152 -0.16,-0.077L-0.16,0.199Z" style="fill:rgb(217,234,217);fill-rule:nonzero;"/>
                    </g>
                    <g transform="matrix(130,0,0,130,1144.31,362.177)">
                        <path d="M-0.18,-0.075C-0.18,0.082 -0.053,0.209 0.105,0.209C0.184,0.209 0.255,0.177 0.307,0.126L0.507,-0.074C0.56,-0.128 0.589,-0.199 0.589,-0.275C0.589,-0.432 0.463,-0.559 0.305,-0.559C0.226,-0.559 0.155,-0.527 0.103,-0.476L-0.097,-0.276C-0.15,-0.222 -0.18,-0.151 -0.18,-0.075Z" style="fill:rgb(217,234,217);fill-rule:nonzero;"/>
                    </g>
                    <g transform="matrix(130,0,0,130,1218.41,362.177)">
                        <path d="M0.415,-0.549L0.364,-0.549L0.364,-0.699L0.091,-0.699L-0.121,-0.488L-0.121,-0.389L-0.172,-0.338L-0.172,-0.139L-0.121,-0.139L-0.121,-0.061C-0.121,0.088 0,0.211 0.152,0.211L0.364,-0L0.364,-0.299L0.415,-0.35L0.415,-0.549Z" style="fill:rgb(217,234,217);fill-rule:nonzero;"/>
                    </g>
                    <g transform="matrix(130,0,0,130,1274.96,362.177)">
                        <path d="M-0.169,-0.074C-0.169,0.082 -0.042,0.209 0.117,0.209C0.191,0.209 0.264,0.179 0.318,0.126L0.518,-0.074C0.539,-0.096 0.557,-0.12 0.571,-0.148L0.526,-0.172L0.597,-0.274C0.597,-0.433 0.472,-0.559 0.317,-0.559C0.238,-0.559 0.166,-0.527 0.114,-0.476C0.08,-0.441 -0.051,-0.31 -0.086,-0.276C-0.139,-0.222 -0.169,-0.151 -0.169,-0.074Z" style="fill:rgb(217,234,217);fill-rule:nonzero;"/>
                    </g>
                </g>
                <g transform="matrix(0.61899,0,0,0.61899,-258.295,538.979)">
                    <g transform="matrix(130,0,0,130,492.656,362.177)">
                        <path d="M0.392,-0.065C0.484,-0.167 0.471,-0.305 0.356,-0.385L0.45,-0.481C0.362,-0.573 0.19,-0.582 0.107,-0.485C0.02,-0.381 0.032,-0.257 0.144,-0.166L0.054,-0.071C0.15,0.036 0.313,0.023 0.392,-0.065Z" style="fill:rgb(0,74,0);fill-rule:nonzero;"/>
                    </g>
                    <g transform="matrix(130,0,0,130,550.246,362.177)">
                        <path d="M0.311,0.021L0.582,-0.55L0.04,-0.55L0.311,0.021Z" style="fill:rgb(0,74,0);fill-rule:nonzero;"/>
                    </g>
                    <g transform="matrix(130,0,0,130,618.106,362.177)">
                        <path d="M0.315,-0.55C0.162,-0.55 0.04,-0.428 0.04,-0.274C0.04,-0.125 0.162,-0 0.315,-0L0.315,0.2C0.466,0.2 0.588,0.077 0.588,-0.073L0.588,-0.55L0.315,-0.55Z" style="fill:rgb(0,74,0);fill-rule:nonzero;"/>
                    </g>
                    <g transform="matrix(70,0,0,70,732.246,345.177)">
                        <path d="M0.364,-0.55L0.364,-0.7L0.091,-0.7L0.091,-0.55L0.04,-0.55L0.04,-0.35L0.091,-0.35L0.091,-0.273C0.091,-0.123 0.212,-0 0.364,-0L0.364,-0.35L0.415,-0.35L0.415,-0.55L0.364,-0.55Z" style="fill:rgb(0,74,0);fill-rule:nonzero;"/>
                    </g>
                    <g transform="matrix(70,0,0,70,762.696,345.177)">
                        <path d="M0.305,0.01C0.463,0.01 0.59,-0.117 0.59,-0.275C0.59,-0.433 0.463,-0.56 0.305,-0.56C0.147,-0.56 0.02,-0.433 0.02,-0.275C0.02,-0.117 0.147,0.01 0.305,0.01Z" style="fill:rgb(0,74,0);fill-rule:nonzero;"/>
                    </g>
                    <g transform="matrix(130,0,0,130,837.896,362.177)">
                        <path d="M0.527,-0.55L0.313,-0.55L0.313,-0.7L0.04,-0.7L0.04,-0L0.527,-0L0.363,-0.275L0.527,-0.55Z" style="fill:rgb(0,74,0);fill-rule:nonzero;"/>
                    </g>
                    <g transform="matrix(130,0,0,130,901.206,362.177)">
                        <path d="M0.317,0.01C0.421,0.01 0.522,-0.048 0.572,-0.149L0.322,-0.274L0.598,-0.274C0.598,-0.433 0.472,-0.56 0.317,-0.56C0.158,-0.56 0.031,-0.433 0.031,-0.274C0.031,-0.118 0.158,0.01 0.317,0.01Z" style="fill:rgb(0,74,0);fill-rule:nonzero;"/>
                    </g>
                    <g transform="matrix(130,0,0,130,981.546,362.177)">
                        <path d="M0.04,-0.55L0.04,-0.273C0.04,-0.123 0.161,-0 0.313,-0L0.313,0.2C0.464,0.2 0.586,0.077 0.586,-0.073L0.586,-0.55L0.04,-0.55Z" style="fill:rgb(0,74,0);fill-rule:nonzero;"/>
                    </g>
                    <g transform="matrix(130,0,0,130,1062.93,362.177)">
                        <path d="M0.313,-0.55C0.161,-0.55 0.04,-0.427 0.04,-0.277L0.04,-0L0.586,-0L0.586,-0.277C0.586,-0.427 0.465,-0.55 0.313,-0.55Z" style="fill:rgb(0,74,0);fill-rule:nonzero;"/>
                    </g>
                    <g transform="matrix(130,0,0,130,1144.31,362.177)">
                        <path d="M0.305,0.01C0.463,0.01 0.59,-0.117 0.59,-0.275C0.59,-0.433 0.463,-0.56 0.305,-0.56C0.147,-0.56 0.02,-0.433 0.02,-0.275C0.02,-0.117 0.147,0.01 0.305,0.01Z" style="fill:rgb(0,74,0);fill-rule:nonzero;"/>
                    </g>
                    <g transform="matrix(130,0,0,130,1218.41,362.177)">
                        <path d="M0.364,-0.55L0.364,-0.7L0.091,-0.7L0.091,-0.55L0.04,-0.55L0.04,-0.35L0.091,-0.35L0.091,-0.273C0.091,-0.123 0.212,-0 0.364,-0L0.364,-0.35L0.415,-0.35L0.415,-0.55L0.364,-0.55Z" style="fill:rgb(0,74,0);fill-rule:nonzero;"/>
                    </g>
                    <g transform="matrix(130,0,0,130,1274.96,362.177)">
                        <path d="M0.317,0.01C0.421,0.01 0.522,-0.048 0.572,-0.149L0.322,-0.274L0.598,-0.274C0.598,-0.433 0.472,-0.56 0.317,-0.56C0.158,-0.56 0.031,-0.433 0.031,-0.274C0.031,-0.118 0.158,0.01 0.317,0.01Z" style="fill:rgb(0,74,0);fill-rule:nonzero;"/>
                    </g>
                </g>
            </g>
            <g transform="matrix(2.29108,0.187822,-0.187822,2.29108,-660.958,809.397)">
                <g transform="matrix(1.48874,0,0,1.04523,-190.732,10.1986)">
                    <path d="M367.769,50.742C369.534,50.742 371.267,50.875 372.955,51.13C373.567,51.222 366.833,77.928 366.833,77.928C366.833,77.928 337.911,92.128 337.562,91.255C336.253,87.989 335.538,84.456 335.538,80.768C335.538,64.196 349.98,50.742 367.769,50.742Z" style="fill:rgb(27,183,252);"/>
                </g>
                <g>
                    <g transform="matrix(1.48874,0,0,1.04523,-186.732,11.1986)">
                        <path d="M368.441,79.811L389.436,102.989C383.711,107.837 376.107,110.793 367.769,110.793C354.998,110.793 343.951,103.858 338.736,93.814L368.441,79.811Z" style="fill:rgb(142,229,98);"/>
                    </g>
                    <g transform="matrix(1.48874,0,0,1.04523,-186.732,11.1986)">
                        <path d="M368.441,79.811L399.892,83.238C399.208,91.047 395.311,98.014 389.436,102.989L368.441,79.811Z" style="fill:rgb(251,230,63);"/>
                    </g>
                    <g transform="matrix(1.48874,0,0,1.04523,-186.732,11.1986)">
                        <path d="M368.441,79.811L393.75,63.005C397.678,67.98 400,74.123 400,80.768C400,81.6 399.964,82.424 399.892,83.238L368.441,79.811Z" style="fill:rgb(246,87,84);"/>
                    </g>
                    <g transform="matrix(1.48874,0,0,1.04523,-186.732,11.1986)">
                        <path d="M368.441,79.811L374.772,51.454C382.51,53.054 389.205,57.248 393.75,63.005L368.441,79.811Z" style="fill:rgb(235,130,255);"/>
                    </g>
                </g>
            </g>
            <g transform="matrix(0.958323,-0.285688,0.285688,0.958323,-295.805,189.093)">
                <g transform="matrix(2.20298,0,0,2.18031,-523.579,926.523)">
                    <path d="M487.374,66.411L444.249,66.411L444.801,70.425L487.925,70.425L487.374,66.411Z" style="fill:rgb(89,89,89);"/>
                </g>
                <g transform="matrix(2.5491,0,0,2.18031,-675.043,954.054)">
                    <path d="M487.374,66.411L444.249,66.411L444.801,70.425L487.925,70.425L487.374,66.411Z" style="fill:rgb(89,89,89);"/>
                </g>
                <g transform="matrix(2.09608,0,0,2.18031,-472.842,981.586)">
                    <path d="M487.374,66.411L444.249,66.411L444.801,70.425L487.925,70.425L487.374,66.411Z" style="fill:rgb(89,89,89);"/>
                </g>
                <g transform="matrix(2.92723,0,0,2.18031,-840.658,1009.12)">
                    <path d="M487.374,66.411L444.249,66.411L444.801,70.425L487.925,70.425L487.374,66.411Z" style="fill:rgb(89,89,89);"/>
                </g>
                <g transform="matrix(2.38209,0,0,2.18031,-606.15,898.991)">
                    <path d="M487.374,66.411L444.249,66.411L444.801,70.425L487.925,70.425L487.374,66.411Z" style="fill:rgb(89,89,89);"/>
                </g>
                <g transform="matrix(2.76357,0,0,2.5716,-771.016,872.534)">
                    <ellipse cx="431.62" cy="68.019" rx="4.719" ry="3.319" style="fill:rgb(89,89,89);"/>
                </g>
                <g transform="matrix(2.76357,0,0,2.5716,-769.868,900.173)">
                    <ellipse cx="431.62" cy="68.019" rx="4.719" ry="3.319" style="fill:rgb(89,89,89);"/>
                </g>
                <g transform="matrix(2.76357,0,0,2.5716,-768.168,927.812)">
                    <ellipse cx="431.62" cy="68.019" rx="4.719" ry="3.319" style="fill:rgb(89,89,89);"/>
                </g>
                <g transform="matrix(2.76357,0,0,2.5716,-766.539,955.451)">
                    <ellipse cx="431.62" cy="68.019" rx="4.719" ry="3.319" style="fill:rgb(89,89,89);"/>
                </g>
                <g transform="matrix(2.76357,0,0,2.5716,-765.786,983.091)">
                    <ellipse cx="431.62" cy="68.019" rx="4.719" ry="3.319" style="fill:rgb(89,89,89);"/>
                </g>
            </g>
            <g transform="matrix(0.61899,0,0,0.61899,5.74964,255.567)">
                <g transform="matrix(1,-0,-0,1,-9.28874,642.771)">
                    <path d="M348.775,369.635C348.174,368.224 346.782,367.313 345.249,367.328C343.715,367.343 342.341,368.28 341.768,369.703L334.078,388.79C333.505,390.213 333.846,391.841 334.941,392.914C336.036,393.988 337.67,394.297 339.081,393.696L352.469,387.998C354.396,387.177 355.293,384.95 354.473,383.023L348.775,369.635ZM345.382,381.029L346.01,382.505C346.01,382.505 344.534,383.133 344.534,383.133L345.382,381.029Z"/>
                    <path d="M147.495,559.377C138.418,533.34 135.808,504.358 140.102,477.044C144.501,449.061 155.639,422.723 175.38,403.412C208.123,371.382 262.004,358.645 340.099,384.21C342.056,384.951 344.247,383.963 344.987,382.006C345.728,380.048 344.74,377.858 342.783,377.117C259.145,341.055 198.355,353.067 159.156,385.331C128.197,410.813 110.468,449.665 105.443,490.793C102.187,517.451 104.798,545.023 112.141,570.574C115.231,580.33 125.66,585.743 135.417,582.653C145.173,579.563 150.585,569.134 147.495,559.377Z"/>
                </g>
            </g>
            <g transform="matrix(0.61899,0,0,0.856887,-190.52,-27.0004)">
                <rect x="648.956" y="1068.43" width="7.471" height="6.164"/>
            </g>
            <g transform="matrix(0.61899,0,0,0.61899,5.74964,255.567)">
                <g transform="matrix(1,-0,-0,1,-9.28874,642.771)">
                    <path d="M663.487,459.339C664.514,460.766 666.3,461.434 668.011,461.031C669.722,460.628 671.022,459.235 671.305,457.5L675.499,431.762C675.782,430.027 674.992,428.293 673.497,427.368C672.002,426.443 670.097,426.509 668.671,427.536L653.705,438.307C651.757,439.709 651.314,442.425 652.716,444.373L663.487,459.339ZM664.413,445.746L662.31,442.823C662.31,442.823 665.232,440.72 665.232,440.72L664.413,445.746Z"/>
                    <path d="M748.208,604.327C748.209,604.323 751.516,583.582 749.703,556.7C748.24,535.01 743.602,509.428 732.01,487.579C719.986,464.918 700.944,446.019 670.206,439.726C667.885,439.122 665.51,440.516 664.906,442.838C664.302,445.159 665.697,447.534 668.018,448.138C693.846,456.327 708.587,474.113 716.962,494.622C725.279,514.985 726.889,537.999 726.644,557.331C726.339,581.448 722.607,599.791 722.607,599.791C721.355,606.856 726.075,613.608 733.139,614.86C740.204,616.112 746.956,611.392 748.208,604.327ZM748.208,604.327L748.208,604.327L748.208,604.327Z"/>
                </g>
            </g>
            <g transform="matrix(0.61899,0,0,0.856887,6.91708,10.787)">
                <rect x="648.956" y="1068.43" width="7.471" height="6.164"/>
            </g>
        </g>
    </g>
    <defs>
        <linearGradient id="_Linear1" x1="0" y1="0" x2="1" y2="0" gradientUnits="userSpaceOnUse" gradientTransform="matrix(1.03932e-14,174.24,-169.734,1.06691e-14,394.5,3.48947)"><stop offset="0" style="stop-color:rgb(0,153,219);stop-opacity:1"/><stop offset="1" style="stop-color:rgb(83,203,255);stop-opacity:1"/></linearGradient>
    </defs>
</svg>
