<?xml version="1.0" encoding="UTF-8" standalone="no"?>
<!DOCTYPE svg PUBLIC "-//W3C//DTD SVG 1.1//EN" "http://www.w3.org/Graphics/SVG/1.1/DTD/svg11.dtd">
<svg width="100%" height="100%" viewBox="0 0 1000 1000" version="1.1" xmlns="http://www.w3.org/2000/svg" xmlns:xlink="http://www.w3.org/1999/xlink" xml:space="preserve" xmlns:serif="http://www.serif.com/" style="fill-rule:evenodd;clip-rule:evenodd;stroke-linejoin:round;stroke-miterlimit:2;">
    <g transform="matrix(1,0,0,1,-1049,-12.6994)">
        <g id="Keynote-icon" serif:id="Keynote icon" transform="matrix(1,0,0,1,-0.53373,-640.301)">
            <rect x="1049.53" y="653" width="1000" height="1000" style="fill:none;"/>
            <g transform="matrix(1.77374,0,0,1.77374,824.492,751.636)">
                <g transform="matrix(1.02655,0,0,1,3.7902,-1.71944)">
                    <path d="M555.233,12.039C555.233,8.154 552.16,5 548.376,5L240.662,5C236.877,5 233.805,8.154 233.805,12.039L202.595,170.961C202.595,174.846 205.667,178 209.452,178L579.548,177.459C583.333,177.459 586.405,174.305 586.405,170.42L555.233,12.039Z" style="fill:rgb(83,203,255);"/>
                </g>
                <g transform="matrix(1.02655,0,0,1,3.7902,-1.71944)">
                    <path d="M555.233,12.039C555.233,8.154 552.16,5 548.376,5L240.662,5C236.877,5 233.805,8.154 233.805,12.039L202.595,170.961C202.595,174.846 205.667,178 209.452,178L579.548,177.459C583.333,177.459 586.405,174.305 586.405,170.42L555.233,12.039Z" style="fill:url(#_Linear1);"/>
                </g>
                <g transform="matrix(1,0,0,1,0.763652,0.280555)">
                    <path d="M597.935,175.459C601.82,175.459 605,172.305 605,168.42C605,172.305 603.85,184.541 594.966,184.541L405.69,184.276L221.034,184.541C212.15,184.541 211,172.846 211,168.961C211,172.846 214.154,176 218.039,176L597.935,175.459Z" style="fill:rgb(21,86,148);"/>
                </g>
                <g transform="matrix(1.05618,0,0,0.943662,-23.2139,15.196)">
                    <path d="M320,414.735L498,414.735L498,424.5C498,444.093 458.12,460 409,460C359.88,460 320,444.093 320,424.5L320,414.735Z" style="fill:rgb(145,176,196);"/>
                </g>
                <g transform="matrix(1.05618,0,0,0.901408,-23.2139,24.6327)">
                    <ellipse cx="409" cy="424.5" rx="89" ry="35.5" style="fill:rgb(223,230,238);"/>
                </g>
                <g transform="matrix(1.03448,0,0,1.65528,-12.7881,-182.694)">
                    <path d="M422,221.868L393,221.868L393,354C402.252,356.749 411.921,356.727 422,354L422,221.868Z" style="fill:rgb(165,188,202);"/>
                </g>
                <g transform="matrix(1,0,0,1,0.763652,0.280555)">
                    <path d="M592.645,160.43L591.207,166.194L224.793,166.194L223.355,160.43L592.645,160.43Z" style="fill:rgb(21,86,148);"/>
                </g>
                <g transform="matrix(1,0,0,1,0.763652,0.280555)">
                    <path d="M592.645,160.43L223.355,160.43L224.182,154.667L591.818,154.667L592.645,160.43Z" style="fill:rgb(148,234,255);"/>
                </g>
                <g transform="matrix(1,0,0,1,0.763652,0.280555)">
                    <path d="M279.859,142.427L294.851,27.36L521.149,27.36L536.141,142.427L279.859,142.427Z" style="fill:rgb(250,253,253);"/>
                </g>
                <g>
                    <g transform="matrix(1,0,0,1,0.763652,0.280555)">
                        <path d="M306.728,53.43L507.569,53.3" style="fill:none;"/>
                    </g>
                    <g transform="matrix(1,0,0,1,0.763652,0.280555)">
                        <path d="M306.728,53.93L507.569,53.8C507.845,53.8 508.069,53.576 508.069,53.3C508.069,53.024 507.844,52.8 507.568,52.8L306.727,52.93C306.451,52.93 306.228,53.154 306.228,53.43C306.228,53.706 306.452,53.93 306.728,53.93Z" style="fill:rgb(89,89,89);"/>
                    </g>
                    <g transform="matrix(0.924808,0,0,0.915294,35.4266,18.4636)">
                        <path d="M487.374,66.411L444.249,66.411L444.801,70.425L487.925,70.425L487.374,66.411Z" style="fill:rgb(89,89,89);"/>
                    </g>
                    <g transform="matrix(1.07011,0,0,0.915294,-28.1575,30.0213)">
                        <path d="M487.374,66.411L444.249,66.411L444.801,70.425L487.925,70.425L487.374,66.411Z" style="fill:rgb(89,89,89);"/>
                    </g>
                    <g transform="matrix(0.879931,0,0,0.915294,56.7262,41.579)">
                        <path d="M487.374,66.411L444.249,66.411L444.801,70.425L487.925,70.425L487.374,66.411Z" style="fill:rgb(89,89,89);"/>
                    </g>
                    <g transform="matrix(1.22885,0,0,0.915294,-97.6829,53.1367)">
                        <path d="M487.374,66.411L444.249,66.411L444.801,70.425L487.925,70.425L487.374,66.411Z" style="fill:rgb(89,89,89);"/>
                    </g>
                    <g transform="matrix(1,0,0,0.915294,0.763652,6.90596)">
                        <path d="M487.374,66.411L444.249,66.411L444.801,70.425L487.925,70.425L487.374,66.411Z" style="fill:rgb(89,89,89);"/>
                    </g>
                    <g transform="matrix(2.80196,0,0,2.73732,-933.872,-146.279)">
                        <path d="M487.663,66.411L444.194,66.411L443.926,70.425L487.795,70.425L487.663,66.411Z" style="fill:rgb(89,89,89);"/>
                    </g>
                    <g transform="matrix(1.16014,0,0,1.07955,-68.4471,-4.20077)">
                        <ellipse cx="431.62" cy="68.019" rx="4.719" ry="3.319" style="fill:rgb(89,89,89);"/>
                    </g>
                    <g transform="matrix(1.16014,0,0,1.07955,-67.9652,7.40212)">
                        <ellipse cx="431.62" cy="68.019" rx="4.719" ry="3.319" style="fill:rgb(89,89,89);"/>
                    </g>
                    <g transform="matrix(1.16014,0,0,1.07955,-67.2515,19.005)">
                        <ellipse cx="431.62" cy="68.019" rx="4.719" ry="3.319" style="fill:rgb(89,89,89);"/>
                    </g>
                    <g transform="matrix(1.16014,0,0,1.07955,-66.5677,30.6079)">
                        <ellipse cx="431.62" cy="68.019" rx="4.719" ry="3.319" style="fill:rgb(89,89,89);"/>
                    </g>
                    <g transform="matrix(1.16014,0,0,1.07955,-66.2515,42.2108)">
                        <ellipse cx="431.62" cy="68.019" rx="4.719" ry="3.319" style="fill:rgb(89,89,89);"/>
                    </g>
                </g>
                <g transform="matrix(1.48874,0,0,1.04523,-190.732,10.1986)">
                    <path d="M367.769,50.742C369.534,50.742 371.267,50.875 372.955,51.13C373.567,51.222 366.833,77.928 366.833,77.928C366.833,77.928 337.911,92.128 337.562,91.255C336.253,87.989 335.538,84.456 335.538,80.768C335.538,64.196 349.98,50.742 367.769,50.742Z" style="fill:rgb(27,183,252);"/>
                </g>
                <g>
                    <g transform="matrix(1.48874,0,0,1.04523,-186.732,11.1986)">
                        <path d="M368.441,79.811L389.436,102.989C383.711,107.837 376.107,110.793 367.769,110.793C354.998,110.793 343.951,103.858 338.736,93.814L368.441,79.811Z" style="fill:rgb(142,229,98);"/>
                    </g>
                    <g transform="matrix(1.48874,0,0,1.04523,-186.732,11.1986)">
                        <path d="M368.441,79.811L399.892,83.238C399.208,91.047 395.311,98.014 389.436,102.989L368.441,79.811Z" style="fill:rgb(251,230,63);"/>
                    </g>
                    <g transform="matrix(1.48874,0,0,1.04523,-186.732,11.1986)">
                        <path d="M368.441,79.811L393.75,63.005C397.678,67.98 400,74.123 400,80.768C400,81.6 399.964,82.424 399.892,83.238L368.441,79.811Z" style="fill:rgb(246,87,84);"/>
                    </g>
                    <g transform="matrix(1.48874,0,0,1.04523,-186.732,11.1986)">
                        <path d="M368.441,79.811L374.772,51.454C382.51,53.054 389.205,57.248 393.75,63.005L368.441,79.811Z" style="fill:rgb(235,130,255);"/>
                    </g>
                </g>
            </g>
        </g>
    </g>
    <defs>
        <linearGradient id="_Linear1" x1="0" y1="0" x2="1" y2="0" gradientUnits="userSpaceOnUse" gradientTransform="matrix(1.03932e-14,174.24,-169.734,1.06691e-14,394.5,3.48947)"><stop offset="0" style="stop-color:rgb(0,153,219);stop-opacity:1"/><stop offset="1" style="stop-color:rgb(83,203,255);stop-opacity:1"/></linearGradient>
    </defs>
</svg>
