<?xml version="1.0" encoding="UTF-8" standalone="no"?>
<!DOCTYPE svg PUBLIC "-//W3C//DTD SVG 1.1//EN" "http://www.w3.org/Graphics/SVG/1.1/DTD/svg11.dtd">
<svg width="100%" height="100%" viewBox="0 0 418 418" version="1.1" xmlns="http://www.w3.org/2000/svg" xmlns:xlink="http://www.w3.org/1999/xlink" xml:space="preserve" xmlns:serif="http://www.serif.com/" style="fill-rule:evenodd;clip-rule:evenodd;stroke-linejoin:round;stroke-miterlimit:2;">
    <g transform="matrix(1,0,0,1,-2355.95,-488.625)">
        <g id="PowerPoint-icon" serif:id="PowerPoint icon" transform="matrix(1,0,0,1,-640.2,-330.375)">
            <rect x="2996.15" y="819" width="417.657" height="417.657" style="fill:none;"/>
            <g transform="matrix(0.185342,0,0,0.185342,2471.74,710.523)">
                <g transform="matrix(1.09167,0,0,1.09167,2820.14,819)">
                    <path d="M1101.94,0L1232.55,404.922L1101.94,818.011L700.982,937.88L283.929,818.011C283.929,366.538 650.467,0 1101.94,0Z" style="fill:rgb(237,108,71);"/>
                </g>
                <g transform="matrix(1.09167,0,0,1.09167,2820.14,819)">
                    <path d="M1101.94,0C1553.41,0 1919.95,366.538 1919.95,818.011L1505.84,968.846L1101.94,818.01L1101.94,0Z" style="fill:rgb(255,143,107);"/>
                </g>
                <g transform="matrix(1.09167,0,0,1.09167,2820.14,819)">
                    <path d="M283.929,818.011L1919.95,818.011C1919.95,1269.48 1553.41,1636.02 1101.94,1636.02C650.467,1636.02 283.929,1269.48 283.929,818.011Z" style="fill:rgb(211,82,48);"/>
                </g>
                <g transform="matrix(1.23863,0,0,2.13184,2602.47,-102.598)">
                    <path d="M1110.88,659.371C1110.88,638.084 1081.14,620.801 1044.5,620.801L384.215,620.801C347.578,620.801 317.833,638.084 317.833,659.371L317.833,1043.01C317.833,1064.3 347.578,1081.58 384.215,1081.58L1044.5,1081.58C1081.14,1081.58 1110.88,1064.3 1110.88,1043.01L1110.88,659.371Z" style="fill:rgb(199,68,33);"/>
                </g>
                <g transform="matrix(1,0,0,1,2994.67,819.97)">
                    <path d="M500.08,620.144C553.369,616.548 606.199,632.027 649.122,663.812C684.922,695.773 704.051,742.411 701.005,790.305C701.59,823.599 692.718,856.376 675.421,884.829C657.909,912.793 632.679,935.092 602.775,949.036C568.588,964.936 531.211,972.787 493.516,971.986L389.973,971.986L389.973,1164.43L283.929,1164.43L283.929,620.144L500.08,620.144ZM389.884,888.848L481.149,888.848C510.082,890.973 538.79,882.41 561.832,864.782C580.89,846.5 590.879,820.719 589.113,794.369C589.113,734.389 554.256,704.399 484.543,704.399L389.885,704.399L389.885,888.848L389.884,888.848Z" style="fill:white;fill-rule:nonzero;"/>
                </g>
            </g>
        </g>
    </g>
</svg>
