<?xml version="1.0" encoding="UTF-8" standalone="no"?>
<!DOCTYPE svg PUBLIC "-//W3C//DTD SVG 1.1//EN" "http://www.w3.org/Graphics/SVG/1.1/DTD/svg11.dtd">
<svg width="100%" height="100%" viewBox="0 0 1000 1000" version="1.1" xmlns="http://www.w3.org/2000/svg" xmlns:xlink="http://www.w3.org/1999/xlink" xml:space="preserve" xmlns:serif="http://www.serif.com/" style="fill-rule:evenodd;clip-rule:evenodd;stroke-linejoin:round;stroke-miterlimit:2;">
    <g transform="matrix(1,0,0,1,0,-1069.7)">
        <g id="svg-to-ppt-icon" serif:id="svg to ppt icon" transform="matrix(1,0,0,1,0,-640.05)">
            <rect x="0" y="1709.75" width="1000" height="1000" style="fill:rgb(0,74,0);"/>
            <g id="svg" transform="matrix(4.40177,0,0,4.40177,-166.519,-1318.71)">
                <g transform="matrix(105.228,0,0,105.228,67.0937,760.685)">
                    <path d="M0.392,-0.065C0.484,-0.167 0.471,-0.305 0.356,-0.385L0.45,-0.481C0.362,-0.573 0.19,-0.582 0.107,-0.485C0.02,-0.381 0.032,-0.257 0.144,-0.166L0.054,-0.071C0.15,0.036 0.313,0.023 0.392,-0.065Z" style="fill:rgb(171,215,171);fill-rule:nonzero;"/>
                </g>
                <g transform="matrix(105.228,0,0,105.228,113.71,760.685)">
                    <path d="M0.311,0.021L0.582,-0.55L0.04,-0.55L0.311,0.021Z" style="fill:rgb(171,215,171);fill-rule:nonzero;"/>
                </g>
                <g transform="matrix(105.228,0,0,105.228,168.639,760.685)">
                    <path d="M0.315,-0.55C0.162,-0.55 0.04,-0.428 0.04,-0.274C0.04,-0.125 0.162,-0 0.315,-0L0.315,0.2C0.466,0.2 0.588,0.077 0.588,-0.073L0.588,-0.55L0.315,-0.55Z" style="fill:rgb(171,215,171);fill-rule:nonzero;"/>
                </g>
            </g>
            <g id="ppt" transform="matrix(4.15901,0,0,4.15901,-1518.03,-601.102)">
                <g transform="matrix(105.228,0,0,105.228,397.3,765.06)">
                    <path d="M0.313,-0.55L0.04,-0.55L0.04,0.15L0.313,0.15L0.313,-0C0.466,-0 0.588,-0.125 0.588,-0.274C0.588,-0.428 0.466,-0.55 0.313,-0.55Z" style="fill:rgb(171,215,171);fill-rule:nonzero;"/>
                </g>
                <g transform="matrix(105.228,0,0,105.228,463.383,765.06)">
                    <path d="M0.313,-0.55L0.04,-0.55L0.04,0.15L0.313,0.15L0.313,-0C0.466,-0 0.588,-0.125 0.588,-0.274C0.588,-0.428 0.466,-0.55 0.313,-0.55Z" style="fill:rgb(171,215,171);fill-rule:nonzero;"/>
                </g>
                <g transform="matrix(105.228,0,0,105.228,525.258,765.06)">
                    <path d="M0.364,-0.55L0.364,-0.7L0.091,-0.7L0.091,-0.55L0.04,-0.55L0.04,-0.35L0.091,-0.35L0.091,-0.273C0.091,-0.123 0.212,-0 0.364,-0L0.364,-0.35L0.415,-0.35L0.415,-0.55L0.364,-0.55Z" style="fill:rgb(171,215,171);fill-rule:nonzero;"/>
                </g>
            </g>
            <g transform="matrix(125.958,0,0,125.958,297.527,2267.95)">
                <path d="M-0.18,-0.075C-0.18,0.082 -0.053,0.209 0.105,0.209C0.184,0.209 0.255,0.177 0.307,0.126L0.507,-0.074L0.103,-0.476L-0.097,-0.276C-0.15,-0.222 -0.18,-0.151 -0.18,-0.075Z" style="fill:rgb(0,74,0);fill-rule:nonzero;"/>
            </g>
            <g transform="matrix(1.70138,0,0,1.70138,-23.6992,-1587.42)">
                <g transform="matrix(125.958,0,0,125.958,238.736,2267.95)">
                    <path d="M0.364,-0.55L0.364,-0.7L0.091,-0.7L0.091,-0.55L0.04,-0.55L0.04,-0.35L0.091,-0.35L0.091,-0.273C0.091,-0.123 0.212,-0 0.364,-0L0.364,-0.35L0.415,-0.35L0.415,-0.55L0.364,-0.55Z" style="fill:rgb(171,215,171);fill-rule:nonzero;"/>
                </g>
                <g transform="matrix(125.958,0,0,125.958,297.527,2267.95)">
                    <path d="M0.305,0.01C0.463,0.01 0.59,-0.117 0.59,-0.275C0.59,-0.433 0.463,-0.56 0.305,-0.56C0.147,-0.56 0.02,-0.433 0.02,-0.275C0.02,-0.117 0.147,0.01 0.305,0.01Z" style="fill:rgb(171,215,171);fill-rule:nonzero;"/>
                </g>
            </g>
        </g>
    </g>
</svg>
