<?xml version="1.0" encoding="UTF-8" standalone="no"?>
<!DOCTYPE svg PUBLIC "-//W3C//DTD SVG 1.1//EN" "http://www.w3.org/Graphics/SVG/1.1/DTD/svg11.dtd">
<svg width="100%" height="100%" viewBox="0 0 1000 1000" version="1.1" xmlns="http://www.w3.org/2000/svg" xmlns:xlink="http://www.w3.org/1999/xlink" xml:space="preserve" xmlns:serif="http://www.serif.com/" style="fill-rule:evenodd;clip-rule:evenodd;stroke-linejoin:round;stroke-miterlimit:2;">
    <g transform="matrix(1,0,0,1,0,-1709)">
        <g id="svg-to-ppt-icon" serif:id="svg to ppt icon" transform="matrix(1,0,0,1,0,-0.748947)">
            <rect x="0" y="1709.75" width="1000" height="1000" style="fill:none;"/>
            <clipPath id="_clip1">
                <rect x="0" y="1709.75" width="1000" height="1000"/>
            </clipPath>
            <g clip-path="url(#_clip1)">
                <g transform="matrix(1.0854,0,0,1.0854,-42.6989,-188.708)">
                    <g id="svg" transform="matrix(3.83179,0,0,3.83179,-37.553,-959.095)">
                        <g transform="matrix(105.228,0,0,105.228,67.0937,765.06)">
                            <path d="M0.392,-0.066C0.484,-0.168 0.47,-0.305 0.355,-0.385L0.449,-0.481C0.361,-0.572 0.19,-0.581 0.107,-0.484L-0.105,-0.272C-0.192,-0.168 -0.179,-0.044 -0.067,0.046L-0.157,0.141C-0.061,0.247 0.101,0.234 0.18,0.146L0.392,-0.066Z" style="fill:rgb(0,74,0);fill-rule:nonzero;"/>
                        </g>
                        <g transform="matrix(105.228,0,0,105.228,113.71,765.06)">
                            <path d="M0.311,0.02L0.581,-0.549L0.04,-0.549L-0.171,-0.338L0.099,0.232L0.311,0.02Z" style="fill:rgb(0,74,0);fill-rule:nonzero;"/>
                        </g>
                        <g transform="matrix(105.228,0,0,105.228,168.639,765.06)">
                            <path d="M-0.16,-0.074C-0.16,0.071 -0.044,0.192 0.103,0.199L0.103,0.411C0.178,0.411 0.246,0.38 0.296,0.331L0.508,0.119C0.559,0.067 0.588,-0.001 0.588,-0.073L0.588,-0.549L0.315,-0.549C0.24,-0.549 0.171,-0.52 0.12,-0.469L-0.08,-0.269C-0.13,-0.219 -0.16,-0.151 -0.16,-0.074Z" style="fill:rgb(0,74,0);fill-rule:nonzero;"/>
                        </g>
                        <g transform="matrix(105.228,0,0,105.228,67.0937,765.06)">
                            <path d="M0.392,-0.065C0.484,-0.167 0.471,-0.305 0.356,-0.385L0.45,-0.481C0.362,-0.573 0.19,-0.582 0.107,-0.485C0.02,-0.381 0.032,-0.257 0.144,-0.166L0.054,-0.071C0.15,0.036 0.313,0.023 0.392,-0.065Z" style="fill:rgb(171,215,171);fill-rule:nonzero;"/>
                        </g>
                        <g transform="matrix(105.228,0,0,105.228,113.71,765.06)">
                            <path d="M0.311,0.021L0.582,-0.55L0.04,-0.55L0.311,0.021Z" style="fill:rgb(171,215,171);fill-rule:nonzero;"/>
                        </g>
                        <g transform="matrix(105.228,0,0,105.228,168.639,765.06)">
                            <path d="M0.315,-0.55C0.162,-0.55 0.04,-0.428 0.04,-0.274C0.04,-0.125 0.162,-0 0.315,-0L0.315,0.2C0.466,0.2 0.588,0.077 0.588,-0.073L0.588,-0.55L0.315,-0.55Z" style="fill:rgb(171,215,171);fill-rule:nonzero;"/>
                        </g>
                    </g>
                    <g id="ppt" transform="matrix(3.83179,0,0,3.83179,-1316.51,-406.697)">
                        <g transform="matrix(105.228,0,0,105.228,397.3,765.06)">
                            <path d="M-0.172,0.361L0.101,0.361L0.313,0.15L0.313,0.113C0.325,0.1 0.343,0.082 0.364,0.061C0.417,0.009 0.484,-0.058 0.507,-0.082C0.557,-0.132 0.587,-0.199 0.587,-0.274C0.587,-0.427 0.466,-0.549 0.313,-0.549L0.04,-0.549L-0.172,-0.338L-0.172,0.361Z" style="fill:rgb(0,74,0);fill-rule:nonzero;"/>
                        </g>
                        <g transform="matrix(105.228,0,0,105.228,463.383,765.06)">
                            <path d="M-0.172,0.361L0.101,0.361L0.313,0.15L0.313,0.113C0.325,0.1 0.343,0.082 0.364,0.061C0.417,0.009 0.484,-0.058 0.507,-0.082C0.557,-0.132 0.587,-0.199 0.587,-0.274C0.587,-0.427 0.466,-0.549 0.313,-0.549L0.04,-0.549L-0.172,-0.338L-0.172,0.361Z" style="fill:rgb(0,74,0);fill-rule:nonzero;"/>
                        </g>
                        <g transform="matrix(105.228,0,0,105.228,525.258,765.06)">
                            <path d="M0.415,-0.549L0.364,-0.549L0.364,-0.699L0.091,-0.699L-0.121,-0.488L-0.121,-0.389L-0.172,-0.338L-0.172,-0.139L-0.121,-0.139L-0.121,-0.061C-0.121,0.088 0,0.211 0.152,0.211L0.364,-0L0.364,-0.299L0.415,-0.35L0.415,-0.549Z" style="fill:rgb(0,74,0);fill-rule:nonzero;"/>
                        </g>
                        <g transform="matrix(105.228,0,0,105.228,397.3,765.06)">
                            <path d="M0.313,-0.55L0.04,-0.55L0.04,0.15L0.313,0.15L0.313,-0C0.466,-0 0.588,-0.125 0.588,-0.274C0.588,-0.428 0.466,-0.55 0.313,-0.55Z" style="fill:rgb(171,215,171);fill-rule:nonzero;"/>
                        </g>
                        <g transform="matrix(105.228,0,0,105.228,463.383,765.06)">
                            <path d="M0.313,-0.55L0.04,-0.55L0.04,0.15L0.313,0.15L0.313,-0C0.466,-0 0.588,-0.125 0.588,-0.274C0.588,-0.428 0.466,-0.55 0.313,-0.55Z" style="fill:rgb(171,215,171);fill-rule:nonzero;"/>
                        </g>
                        <g transform="matrix(105.228,0,0,105.228,525.258,765.06)">
                            <path d="M0.364,-0.55L0.364,-0.7L0.091,-0.7L0.091,-0.55L0.04,-0.55L0.04,-0.35L0.091,-0.35L0.091,-0.273C0.091,-0.123 0.212,-0 0.364,-0L0.364,-0.35L0.415,-0.35L0.415,-0.55L0.364,-0.55Z" style="fill:rgb(171,215,171);fill-rule:nonzero;"/>
                        </g>
                    </g>
                    <g id="to" transform="matrix(1.87632,0,0,1.87632,-73.983,799.401)">
                        <g transform="matrix(105.228,0,0,105.228,261.029,765.06)">
                            <path d="M0.415,-0.549L0.364,-0.549L0.364,-0.699L0.091,-0.699L-0.121,-0.488L-0.121,-0.389L-0.172,-0.338L-0.172,-0.139L-0.121,-0.139L-0.121,-0.061C-0.121,0.088 0,0.211 0.152,0.211L0.364,-0L0.364,-0.299L0.415,-0.35L0.415,-0.549Z" style="fill:rgb(0,74,0);fill-rule:nonzero;"/>
                        </g>
                        <g transform="matrix(105.228,0,0,105.228,306.804,765.06)">
                            <path d="M-0.18,-0.075C-0.18,0.082 -0.053,0.209 0.105,0.209C0.184,0.209 0.255,0.177 0.307,0.126L0.507,-0.074C0.56,-0.128 0.589,-0.199 0.589,-0.275C0.589,-0.432 0.463,-0.559 0.305,-0.559C0.226,-0.559 0.155,-0.527 0.103,-0.476L-0.097,-0.276C-0.15,-0.222 -0.18,-0.151 -0.18,-0.075Z" style="fill:rgb(0,74,0);fill-rule:nonzero;"/>
                        </g>
                        <g transform="matrix(105.228,0,0,105.228,261.029,765.06)">
                            <path d="M0.364,-0.55L0.364,-0.7L0.091,-0.7L0.091,-0.55L0.04,-0.55L0.04,-0.35L0.091,-0.35L0.091,-0.273C0.091,-0.123 0.212,-0 0.364,-0L0.364,-0.35L0.415,-0.35L0.415,-0.55L0.364,-0.55Z" style="fill:rgb(171,215,171);fill-rule:nonzero;"/>
                        </g>
                        <g transform="matrix(105.228,0,0,105.228,306.804,765.06)">
                            <path d="M0.305,0.01C0.463,0.01 0.59,-0.117 0.59,-0.275C0.59,-0.433 0.463,-0.56 0.305,-0.56C0.147,-0.56 0.02,-0.433 0.02,-0.275C0.02,-0.117 0.147,0.01 0.305,0.01Z" style="fill:rgb(171,215,171);fill-rule:nonzero;"/>
                        </g>
                    </g>
                </g>
            </g>
        </g>
    </g>
</svg>
