<?xml version="1.0" encoding="UTF-8" standalone="no"?>
<!DOCTYPE svg PUBLIC "-//W3C//DTD SVG 1.1//EN" "http://www.w3.org/Graphics/SVG/1.1/DTD/svg11.dtd">
<svg width="100%" height="100%" viewBox="0 0 418 418" version="1.1" xmlns="http://www.w3.org/2000/svg" xmlns:xlink="http://www.w3.org/1999/xlink" xml:space="preserve" xmlns:serif="http://www.serif.com/" style="fill-rule:evenodd;clip-rule:evenodd;stroke-linejoin:round;stroke-miterlimit:2;">
    <g transform="matrix(1,0,0,1,-2904.21,-13.6994)">
        <g id="iTerm2-icon" serif:id="iTerm2 icon" transform="matrix(1,0,0,1,-91.9394,-805.301)">
            <rect x="2996.15" y="819" width="417.657" height="417.657" style="fill:none;"/>
            <g id="outline" transform="matrix(0.925259,0,0,1.15138,737.1,-1128.82)">
                <path d="M2865.4,1784.32C2865.4,1745.4 2826.08,1713.8 2777.64,1713.8L2556.82,1713.8C2508.38,1713.8 2469.06,1745.4 2469.06,1784.32L2469.06,1961.88C2469.06,2000.81 2508.38,2032.4 2556.82,2032.4L2777.64,2032.4C2826.08,2032.4 2865.4,2000.81 2865.4,1961.88L2865.4,1784.32Z" style="fill:url(#_Linear1);"/>
            </g>
            <g id="outer-rounded-square" serif:id="outer rounded square" transform="matrix(0.850091,0,0,1.05784,937.589,-953.616)">
                <path d="M2865.4,1772.09C2865.4,1739.92 2832.89,1713.8 2792.86,1713.8L2541.6,1713.8C2501.57,1713.8 2469.06,1739.92 2469.06,1772.09L2469.06,1974.11C2469.06,2006.28 2501.57,2032.4 2541.6,2032.4L2792.86,2032.4C2832.89,2032.4 2865.4,2006.28 2865.4,1974.11L2865.4,1772.09Z"/>
            </g>
            <g id="inner-rounded-square" serif:id="inner rounded square" transform="matrix(0.716948,0,0,0.89216,1292.71,-643.277)">
                <path d="M2865.4,1760.86C2865.4,1734.88 2839.16,1713.8 2806.84,1713.8L2527.62,1713.8C2495.3,1713.8 2469.06,1734.88 2469.06,1760.86L2469.06,1985.34C2469.06,2011.32 2495.3,2032.4 2527.62,2032.4L2806.84,2032.4C2839.16,2032.4 2865.4,2011.32 2865.4,1985.34L2865.4,1760.86Z" style="fill:rgb(29,43,45);"/>
            </g>
            <g id="cursor" transform="matrix(0.794642,0,0,0.875636,1069.84,-622.122)">
                <rect x="2606.59" y="1741.2" width="48.808" height="90.089" style="fill:rgb(0,119,0);"/>
            </g>
            <g id="_-" serif:id="$" transform="matrix(0.820846,0,0,0.820846,1001.72,-526.465)">
                <path d="M2559.43,1792.37C2547.08,1788.12 2538.6,1783.05 2539,1773.42C2539.48,1761.99 2545.53,1758.01 2557.17,1755.62L2557.17,1740.89L2566.49,1740.89L2566.49,1755.62C2572.89,1755.68 2578.81,1759.78 2583.95,1764.28L2577.99,1772.04C2571.26,1767.94 2568.63,1765.56 2560.86,1766.23C2547.91,1767.36 2548.08,1777.4 2564.68,1782.09C2573.65,1785.06 2585.75,1790.79 2585.48,1801.83C2585.13,1816.36 2572.22,1819.45 2566.49,1820.31L2566.49,1836.99L2557.17,1836.99L2557.17,1820.31C2553.2,1820.25 2542.53,1817.44 2535.69,1811.66L2541.62,1802.72C2548.93,1808.47 2558.79,1809.66 2561.93,1810.03C2577.09,1808.43 2577.65,1799.52 2559.43,1792.37Z" style="fill:rgb(0,240,0);fill-rule:nonzero;"/>
            </g>
        </g>
    </g>
    <defs>
        <linearGradient id="_Linear1" x1="0" y1="0" x2="1" y2="0" gradientUnits="userSpaceOnUse" gradientTransform="matrix(2.42768e-14,318.607,-396.47,1.9509e-14,2667.23,1713.8)"><stop offset="0" style="stop-color:rgb(203,230,235);stop-opacity:1"/><stop offset="1" style="stop-color:rgb(118,118,118);stop-opacity:1"/></linearGradient>
    </defs>
</svg>
