<?xml version="1.0" encoding="UTF-8" standalone="no"?>
<!DOCTYPE svg PUBLIC "-//W3C//DTD SVG 1.1//EN" "http://www.w3.org/Graphics/SVG/1.1/DTD/svg11.dtd">
<svg width="100%" height="100%" viewBox="0 0 418 418" version="1.1" xmlns="http://www.w3.org/2000/svg" xmlns:xlink="http://www.w3.org/1999/xlink" xml:space="preserve" xmlns:serif="http://www.serif.com/" style="fill-rule:evenodd;clip-rule:evenodd;stroke-linejoin:round;stroke-miterlimit:2;">
    <g transform="matrix(1,0,0,1,-2355.95,0)">
        <g id="macOS-icon" serif:id="macOS icon" transform="matrix(1,0,0,1,-640.2,-819)">
            <rect x="2996.15" y="819" width="417.657" height="417.657" style="fill:none;"/>
            <g transform="matrix(0.683091,0,0,0.683091,1300.89,-146.93)">
                <g id="background" transform="matrix(1.00752,0,0,1.2529,-3178.27,-487.295)">
                    <path d="M5973.24,1951.73L5932.67,1571.41L5695.54,1571.41C5680.99,1571.41 5669.17,1580.91 5669.17,1592.61L5669.17,1930.53C5669.17,1942.23 5680.99,1951.73 5695.54,1951.73L5973.24,1951.73Z" style="fill:url(#_Linear1);"/>
                </g>
                <g id="nose" transform="matrix(1,0,0,1,-3145.65,-86.777)">
                    <path d="M5944.68,1568.3C5912.72,1631.78 5895.4,1717.73 5891.13,1831.11C5891.13,1831.11 5891.1,1841.8 5901.83,1841.8L5956.54,1841.8C5962.44,1841.8 5967.53,1846.59 5967.53,1852.5C5968.37,1916.81 5971,1981.01 5985.55,2044.79L6160.45,2044.79C6175.11,2044.79 6187.01,2032.89 6187.01,2018.23L6187.01,1594.86C6187.01,1580.2 6175.11,1568.3 6160.45,1568.3L5944.68,1568.3Z" style="fill:rgb(231,231,231);"/>
                </g>
                <g id="smile" transform="matrix(1,0,0,1,-3778.19,-623.627)">
                    <path d="M6565.45,2465.34C6565.39,2465.33 6565.32,2465.33 6565.26,2465.33C6533.15,2465.33 6507.41,2460.03 6487.13,2452.58C6442.27,2436.11 6424.85,2409.34 6424.85,2409.34C6422.18,2405.14 6416.62,2403.9 6412.42,2406.56C6408.23,2409.22 6406.99,2414.79 6409.65,2418.98C6409.65,2418.99 6429.25,2450.51 6480.92,2469.48C6502.82,2477.52 6530.6,2483.33 6565.26,2483.33C6565.32,2483.33 6565.39,2483.33 6565.45,2483.33C6565.52,2483.33 6565.58,2483.33 6565.65,2483.33C6600.31,2483.33 6628.09,2477.52 6649.98,2469.48C6701.66,2450.5 6721.26,2418.98 6721.26,2418.98C6723.92,2414.79 6722.68,2409.22 6718.48,2406.56C6714.29,2403.9 6708.72,2405.14 6706.06,2409.34L6706.06,2409.34C6706.06,2409.34 6688.64,2436.11 6643.78,2452.58C6623.5,2460.03 6597.75,2465.33 6565.65,2465.33C6565.58,2465.33 6565.52,2465.33 6565.45,2465.34Z"/>
                </g>
                <g id="eyes">
                    <g transform="matrix(1,0,0,1.07768,-3148.54,-216.6)">
                        <path d="M5810.55,1697.73L5810.55,1728.72C5810.55,1734.61 5815.7,1739.39 5822.05,1739.39C5828.4,1739.39 5833.55,1734.61 5833.55,1728.72L5833.55,1697.73C5833.55,1691.84 5828.4,1687.06 5822.05,1687.06C5815.7,1687.06 5810.55,1691.84 5810.55,1697.73Z"/>
                    </g>
                    <g transform="matrix(1,0,0,1.07768,-2922.19,-216.6)">
                        <path d="M5810.55,1697.73L5810.55,1728.72C5810.55,1734.61 5815.7,1739.39 5822.05,1739.39C5828.4,1739.39 5833.55,1734.61 5833.55,1728.72L5833.55,1697.73C5833.55,1691.84 5828.4,1687.06 5822.05,1687.06C5815.7,1687.06 5810.55,1691.84 5810.55,1697.73Z"/>
                    </g>
                </g>
            </g>
        </g>
    </g>
    <defs>
        <linearGradient id="_Linear1" x1="0" y1="0" x2="1" y2="0" gradientUnits="userSpaceOnUse" gradientTransform="matrix(2.32877e-14,-380.318,472.941,2.89593e-14,5921.18,1951.73)"><stop offset="0" style="stop-color:rgb(6,116,251);stop-opacity:1"/><stop offset="1" style="stop-color:rgb(0,213,255);stop-opacity:1"/></linearGradient>
    </defs>
</svg>
